<?xml version="1.0" encoding="UTF-8"?>
<svg width="317px" height="120px" viewBox="0 0 317 120" version="1.1" xmlns="http://www.w3.org/2000/svg" xmlns:xlink="http://www.w3.org/1999/xlink">
    <!-- Generator: Sketch 55.2 (78181) - https://sketchapp.com -->
    <title>path0</title>
    <desc>Created with Sketch.</desc>
    <g id="Page-1" stroke="none" stroke-width="1" fill="none" fill-rule="evenodd">
        <g id="Artboard" transform="translate(-125.000000, -130.000000)" fill="#3076F8">
            <path d="M301.230601,131.437076 C301.234778,132.228303 301.45953,137.365013 301.730235,142.853473 C302.00094,148.341932 302.226527,153.476971 302.229869,154.264856 L302.237389,155.696919 L311.47812,155.787154 L320.719687,155.876554 L318.716136,163.318433 C317.614935,167.411593 316.679164,170.797911 316.636554,170.843864 C316.593943,170.890653 314.027258,170.417755 310.933368,169.794465 L305.308721,168.660679 L305.134099,170.04846 C305.038016,170.812115 304.109765,186.202193 303.070392,204.248355 L301.18047,237.059634 L299.224543,240.273003 C295.89671,245.738068 293.625796,249.364178 293.568982,249.299872 C293.539739,249.264752 291.822768,246.518433 289.754883,243.194778 L285.994256,237.152376 L284.151958,205.647833 C283.138486,188.320209 282.215248,172.910914 282.099948,171.404491 L281.890235,168.665692 L276.277285,169.796971 C273.190914,170.419426 270.609191,170.872272 270.541514,170.80376 C270.473003,170.736084 269.598225,167.625483 268.59812,163.891593 C267.598016,160.157702 266.679791,156.78893 266.557807,156.405431 C266.338068,155.711958 266.395718,155.707781 275.603029,155.707781 L284.869661,155.707781 L285.274883,145.644073 C285.497963,140.109661 285.772846,134.325431 285.887311,132.790601 L286.094517,130 L293.658381,130 L301.223081,130 L301.230601,131.437076 M186.609608,173.6353 C187.36658,176.493577 187.371593,176.684073 187.481044,205.485744 L187.591332,234.461201 L185.803342,234.847206 C145.878538,243.452115 125,235.907467 125,212.874151 C125,192.976501 142.905796,182.483342 170.792585,186.039269 L172.453577,186.251488 L172.236345,182.733995 C171.765117,175.114151 169.829243,171.462977 165.071854,169.22047 C158.724491,166.228512 147.263812,166.564386 134.918329,170.105274 C133.598225,170.48376 131.118433,162.334204 131.469347,158.769922 C131.750914,155.914151 151.306841,153.080104 161.867676,154.365117 C175.661097,156.04282 183.585065,162.214726 186.609608,173.6353 Z M440.849977,173.6353 C441.606949,176.493577 441.611962,176.684073 441.721414,205.485744 L441.831701,234.461201 L440.043711,234.847206 C400.118907,243.452115 379.240369,235.907467 379.240369,212.874151 C379.240369,192.976501 397.146165,182.483342 425.032954,186.039269 L426.693946,186.251488 L426.476714,182.733995 C426.005487,175.114151 424.069612,171.462977 419.312223,169.22047 C412.96486,166.228512 401.504181,166.564386 389.158698,170.105274 C387.838594,170.48376 385.358803,162.334204 385.709716,158.769922 C385.991283,155.914151 405.54721,153.080104 416.108045,154.365117 C429.901466,156.04282 437.825434,162.214726 440.849977,173.6353 Z M255.998642,158.058068 C256.61107,158.637076 254.256606,168.112585 253.111123,169.679164 C252.698381,170.242298 252.57389,170.237285 250.649713,169.573055 C232.065483,163.15718 216.952794,167.638016 220.207102,178.59906 C221.416919,182.672167 224.286057,184.488564 235.599687,188.342768 C251.384961,193.72094 256.417232,197.990392 258.134204,207.461723 C262.424543,231.122507 237.694308,244.320209 205.325013,235.642611 C203.46517,235.143812 201.896919,234.70517 201.841775,234.668407 C201.333786,234.335039 204.556345,222.810026 205.389347,221.976188 C205.544752,221.821619 206.735352,222.082298 208.035405,222.556867 C225.139948,228.799791 242.703185,224.233734 242.703185,213.54423 C242.703185,207.523551 239.782245,204.561671 230.695248,201.366684 C208.848355,193.685849 203.124282,188.263394 203.904648,175.983916 C204.907258,160.226214 218.720731,152.017337 240.264334,154.375979 C245.019217,154.896501 255.167311,157.271018 255.998642,158.058068 Z M344.84752,155.899112 C345.201775,156.253368 346.022245,161.404282 346.400731,165.653681 L346.639687,168.327311 L347.355718,167.155927 C350.417023,162.152898 355.998225,157.926893 361.667154,156.321044 C364.254726,155.588303 373.181305,155.165535 373.764491,155.747885 C374.400313,156.383708 374.701097,162.185483 374.294204,165.963655 L373.86893,169.914778 L369.662977,169.914778 C359.933473,169.914778 354.107467,173.026214 350.660992,180.062872 C347.693264,186.119478 347.783499,185.180366 347.577128,212.342768 L347.395822,236.335248 L346.380679,236.622663 C345.028825,237.006997 336.816606,237.100574 333.948303,236.765535 L331.664021,236.498172 L331.750078,196.187363 L331.8353,155.876554 L333.188825,155.650966 C335.169817,155.32094 344.466527,155.518956 344.84752,155.899112 M170.742454,199.896188 L172.014935,200.095039 L171.926371,211.78799 L171.836971,223.48094 L170.877807,223.737441 C166.87906,224.806057 155.282193,225.084282 151.465587,224.20282 C139.53953,221.447311 139.008146,205.067154 150.706945,200.850339 C154.609608,199.443342 164.75436,198.960418 170.742454,199.896188 M424.982823,199.896188 L426.255304,200.095039 L426.16674,211.78799 L426.07734,223.48094 L425.118176,223.737441 C421.119429,224.806057 409.522562,225.084282 405.705957,224.20282 C393.779899,221.447311 393.248515,205.067154 404.947314,200.850339 C408.849977,199.443342 418.994729,198.960418 424.982823,199.896188" id="path0"></path>
        </g>
    </g>
</svg>